<?xml version="1.0" encoding="UTF-8" standalone="no"?>
<svg width="72px" height="36px" viewBox="0 0 72 36" version="1.1" xmlns="http://www.w3.org/2000/svg" xmlns:xlink="http://www.w3.org/1999/xlink">
    <!-- Generator: Sketch 42 (36781) - http://www.bohemiancoding.com/sketch -->
    <title>facebook</title>
    <desc>Created with Sketch.</desc>
    <defs></defs>
    <g id="Symbols" stroke="none" stroke-width="1" fill="none" fill-rule="evenodd">
        <g id="facebook">
            <g id="fb" fill-opacity="0.87" fill="#000000">
                <path d="M18,0 C27.9,0 36,8.1 36,18 C36,27.9 27.9,36 18,36 C8.1,36 0,27.9 0,18 C0,8.1 8.1,0 18,0 Z M19.0258966,26.94375 L19.0258966,18.7588107 L21.944793,18.7588107 L22.3817903,15.5689374 L19.0258966,15.5689374 L19.0258966,13.5323443 C19.0258966,12.6088015 19.2983258,11.9793797 20.7053999,11.9793797 L22.5,11.9786669 L22.5,9.12567847 C22.1895418,9.08687416 21.1243082,9 19.8849993,9 C17.2976791,9 15.5263003,10.4865221 15.5263003,13.2165247 L15.5263003,15.5689374 L12.6,15.5689374 L12.6,18.7588107 L15.5263003,18.7588107 L15.5263003,26.94375 L19.0258966,26.94375 Z" id="Combined-Shape"></path>
            </g>
            <g id="fb-copy" transform="translate(36.000000, 0.000000)" fill="#FFFFFF">
                <path d="M18,0 C27.9,0 36,8.1 36,18 C36,27.9 27.9,36 18,36 C8.1,36 0,27.9 0,18 C0,8.1 8.1,0 18,0 Z M19.0258966,26.94375 L19.0258966,18.7588107 L21.944793,18.7588107 L22.3817903,15.5689374 L19.0258966,15.5689374 L19.0258966,13.5323443 C19.0258966,12.6088015 19.2983258,11.9793797 20.7053999,11.9793797 L22.5,11.9786669 L22.5,9.12567847 C22.1895418,9.08687416 21.1243082,9 19.8849993,9 C17.2976791,9 15.5263003,10.4865221 15.5263003,13.2165247 L15.5263003,15.5689374 L12.6,15.5689374 L12.6,18.7588107 L15.5263003,18.7588107 L15.5263003,26.94375 L19.0258966,26.94375 Z" id="Combined-Shape"></path>
            </g>
        </g>
    </g>
</svg>