<?xml version="1.0" encoding="UTF-8" standalone="no"?>
<svg width="72px" height="36px" viewBox="0 0 72 36" version="1.1" xmlns="http://www.w3.org/2000/svg" xmlns:xlink="http://www.w3.org/1999/xlink">
    <!-- Generator: Sketch 42 (36781) - http://www.bohemiancoding.com/sketch -->
    <title>twitter</title>
    <desc>Created with Sketch.</desc>
    <defs></defs>
    <g id="Symbols" stroke="none" stroke-width="1" fill="none" fill-rule="evenodd">
        <g id="twitter">
            <g id="Buttons" fill="#000000" fill-opacity="0.87">
                <g id="twitter">
                    <path d="M18,0 C27.9,0 36,8.1 36,18 C36,27.9 27.9,36 18,36 C8.1,36 0,27.9 0,18 C0,8.1 8.1,0 18,0 Z M18.1770285,15.2912114 L18.2179973,15.8751244 L17.5351827,15.8036249 C15.0497375,15.5295432 12.878387,14.600049 11.0347876,13.0389752 L10.1334723,12.2643967 L9.9013153,12.8363932 C9.40968877,14.1114686 9.7237835,15.4580437 10.7480054,16.3637048 C11.2942571,16.8642017 11.1713505,16.9357013 10.2290663,16.6377864 C9.9013153,16.5424537 9.61453316,16.4709541 9.58722057,16.5067039 C9.49162652,16.59012 9.81937754,17.67453 10.0788471,18.1035274 C10.4339107,18.6993571 11.1576942,19.2832701 11.9497591,19.6288513 L12.6189175,19.902933 L11.8268525,19.9148496 C11.0621001,19.9148496 11.0347876,19.9267662 11.1167253,20.1770146 C11.3898512,20.9515932 12.4686983,21.7738381 13.670452,22.1313359 L14.5171421,22.3815844 L13.7797023,22.7629154 C12.6871989,23.3110787 11.4035075,23.6209101 10.119816,23.6447433 C9.50528282,23.6566599 9,23.7043262 9,23.740076 C9,23.8592419 10.6660677,24.5265712 11.6356644,24.7887362 C14.5444547,25.5633148 17.9994967,25.2296502 20.5941922,23.9069083 C22.4377917,22.9654974 24.2813912,21.0945923 25.1417376,19.2832701 C25.6060515,18.3180261 26.0703655,16.5543703 26.0703655,15.7082921 C26.0703655,15.1601289 26.1113343,15.0886293 26.8760867,14.4332167 C27.3267443,14.0518857 27.7500894,13.6348049 27.8320272,13.515639 C27.9685901,13.2892237 27.9549338,13.2892237 27.2584629,13.4918058 C26.097678,13.8493036 25.9338025,13.8016372 26.5073668,13.2653905 C26.9307119,12.8840595 27.4359947,12.1928971 27.4359947,11.990315 C27.4359947,11.9545653 27.2311503,12.0141482 26.9989933,12.1213976 C26.7531801,12.2405635 26.2069284,12.4193124 25.7972396,12.5265617 L25.0597998,12.7291438 L24.3906415,12.3358962 C24.0219216,12.1213976 23.5029825,11.8830657 23.2298566,11.8115661 C22.5333857,11.6447338 21.4681949,11.668567 20.8400055,11.8592325 C19.1329689,12.3954792 18.0541218,13.777804 18.1770285,15.2912114 Z" id="Combined-Shape"></path>
                </g>
            </g>
            <g id="Buttons-Copy" transform="translate(36.000000, 0.000000)" fill="#FFFFFF">
                <g id="twitter">
                    <path d="M18,0 C27.9,0 36,8.1 36,18 C36,27.9 27.9,36 18,36 C8.1,36 0,27.9 0,18 C0,8.1 8.1,0 18,0 Z M18.1770285,15.2912114 L18.2179973,15.8751244 L17.5351827,15.8036249 C15.0497375,15.5295432 12.878387,14.600049 11.0347876,13.0389752 L10.1334723,12.2643967 L9.9013153,12.8363932 C9.40968877,14.1114686 9.7237835,15.4580437 10.7480054,16.3637048 C11.2942571,16.8642017 11.1713505,16.9357013 10.2290663,16.6377864 C9.9013153,16.5424537 9.61453316,16.4709541 9.58722057,16.5067039 C9.49162652,16.59012 9.81937754,17.67453 10.0788471,18.1035274 C10.4339107,18.6993571 11.1576942,19.2832701 11.9497591,19.6288513 L12.6189175,19.902933 L11.8268525,19.9148496 C11.0621001,19.9148496 11.0347876,19.9267662 11.1167253,20.1770146 C11.3898512,20.9515932 12.4686983,21.7738381 13.670452,22.1313359 L14.5171421,22.3815844 L13.7797023,22.7629154 C12.6871989,23.3110787 11.4035075,23.6209101 10.119816,23.6447433 C9.50528282,23.6566599 9,23.7043262 9,23.740076 C9,23.8592419 10.6660677,24.5265712 11.6356644,24.7887362 C14.5444547,25.5633148 17.9994967,25.2296502 20.5941922,23.9069083 C22.4377917,22.9654974 24.2813912,21.0945923 25.1417376,19.2832701 C25.6060515,18.3180261 26.0703655,16.5543703 26.0703655,15.7082921 C26.0703655,15.1601289 26.1113343,15.0886293 26.8760867,14.4332167 C27.3267443,14.0518857 27.7500894,13.6348049 27.8320272,13.515639 C27.9685901,13.2892237 27.9549338,13.2892237 27.2584629,13.4918058 C26.097678,13.8493036 25.9338025,13.8016372 26.5073668,13.2653905 C26.9307119,12.8840595 27.4359947,12.1928971 27.4359947,11.990315 C27.4359947,11.9545653 27.2311503,12.0141482 26.9989933,12.1213976 C26.7531801,12.2405635 26.2069284,12.4193124 25.7972396,12.5265617 L25.0597998,12.7291438 L24.3906415,12.3358962 C24.0219216,12.1213976 23.5029825,11.8830657 23.2298566,11.8115661 C22.5333857,11.6447338 21.4681949,11.668567 20.8400055,11.8592325 C19.1329689,12.3954792 18.0541218,13.777804 18.1770285,15.2912114 Z" id="Combined-Shape"></path>
                </g>
            </g>
        </g>
    </g>
</svg>