<?xml version="1.0" encoding="UTF-8" standalone="no"?>
<svg width="36px" height="36px" viewBox="0 0 36 36" version="1.1" xmlns="http://www.w3.org/2000/svg" xmlns:xlink="http://www.w3.org/1999/xlink">
    <!-- Generator: Sketch 42 (36781) - http://www.bohemiancoding.com/sketch -->
    <title>whatsapp</title>
    <desc>Created with Sketch.</desc>
    <defs></defs>
    <g id="Symbols" stroke="none" stroke-width="1" fill="none" fill-rule="evenodd">
        <g id="whatsapp">
            <g id="fb" fill-opacity="0.87" fill="#000000">
                <path d="M18,0 C8.1,0 0,8.1 0,18 C0,27.9 8.1,36 18,36 C27.9,36 36,27.9 36,18 C36,8.1 27.9,0 18,0 L18,0 Z" id="Combined-Shape"></path>
            </g>
            <path d="M23.7687318,19.8487588 C23.4825988,19.70561 22.0758744,19.0134219 21.8135722,18.9178795 C21.5512699,18.822392 21.3605146,18.7746757 21.1697593,19.0610283 C20.9790039,19.3474907 20.4306785,19.9920175 20.263699,20.1830473 C20.0968293,20.3739125 19.9299046,20.3979079 19.6438266,20.2546492 C19.3576387,20.1113905 18.4356547,19.8092789 17.3427377,18.8343623 C16.492081,18.0756788 15.9178383,17.1387046 15.7509137,16.8521872 C15.584044,16.5657797 15.7331779,16.4109352 15.8764366,16.2682256 C16.0051443,16.1400121 16.1625696,15.933992 16.3056086,15.7669575 C16.4487025,15.5998682 16.4963639,15.4804402 16.5917416,15.28963 C16.6871192,15.0986001 16.6394579,14.9315108 16.5679109,14.788307 C16.4963639,14.6451032 15.924098,13.2366218 15.6856813,12.663642 C15.4534145,12.1058173 15.2175236,12.1813726 15.0418684,12.1724773 C14.8751634,12.164186 14.6841885,12.1624289 14.4934881,12.1624289 C14.3027327,12.1624289 13.9927142,12.2340308 13.7304668,12.5204383 C13.4681645,12.8069556 12.728974,13.4991986 12.728974,14.9075703 C12.728974,16.3159968 13.7542975,17.6765423 13.8973914,17.8675172 C14.0404305,18.0585471 15.9150379,20.9486493 18.7854277,22.1881196 C19.4681164,22.4829282 20.0011221,22.6590227 20.4166217,22.7908053 C21.1021109,23.0086859 21.7258818,22.9779366 22.2188586,22.9042482 C22.7686116,22.8221037 23.9117708,22.2120601 24.1502424,21.5437027 C24.3886591,20.8752354 24.3886591,20.3023655 24.3171121,20.1830473 C24.24562,20.0636743 24.0548647,19.9920175 23.7687318,19.8487588 M18.5478346,26.9773738 L18.543991,26.9773738 C16.8360885,26.9767149 15.160912,26.5178918 13.6994979,25.6506525 L13.3519762,25.4443578 L9.74953411,26.3893488 L10.7110529,22.8770131 L10.4847712,22.5169172 C9.53198301,21.0014722 9.02879312,19.2500265 9.02950694,17.4515235 C9.0315935,12.203611 13.3014595,7.93407437 18.5516234,7.93407437 C21.0939294,7.93495292 23.4837519,8.92634244 25.2808273,10.7254495 C27.0778477,12.5245016 28.066931,14.9159714 28.0659976,17.4591559 C28.0638561,22.7075078 23.7939901,26.9773738 18.5478346,26.9773738 M26.648511,9.35836972 C24.4864527,7.19378562 21.6111761,6.00120801 18.5477248,6 C12.2357227,6 7.09850749,11.1368308 7.09598166,17.4507548 C7.09515802,19.4691151 7.62245314,21.4391551 8.6246049,23.1758851 L7,29.1100006 L13.0706753,27.5175177 C14.7433259,28.4298377 16.6265541,28.9107343 18.5431673,28.9113933 L18.5478346,28.9113933 L18.5478895,28.9113933 C24.8592328,28.9113933 29.9969421,23.7740133 29.999468,17.4599247 C30.0006211,14.4000974 28.8105693,11.5228989 26.648511,9.35836972" id="Fill-1" fill="#FFFFFF"></path>
        </g>
    </g>
</svg>